<svg id="Layer_1" data-name="Layer 1" xmlns="http://www.w3.org/2000/svg" viewBox="0 0 2160 1080"><defs><style>.cls-1{fill:#5553ce;}.cls-2{fill:#f4f4f4;}</style></defs><rect class="cls-1" width="2160" height="1080"/><path class="cls-2" d="M882.75,501.05c-6.06,6.63-9.14,15.9-11.84,27.13a62.64,62.64,0,0,1-19.11,32.29c1.27-7.4-1.5-14.69-6.75-17.73-8.68-5.06-19.62,3.37-27.48,10.51-18,16.43-16.13,32.43-15.91,55,.24,19.08-3.93,39.56-11.45,58.68v0c-5,12.66-10.58,4.33-13.2-3.1-1.76-5-2.81-10.67-4.75-15.51-11-27.34-38.79-11.3-57.53-3.33-25.13,10.22-48.5,27.76-69.74,45.52-3.74,3.11-7.63,6.37-11.15,5.55s-6.32-7.55-4.81-14.88c1.19-5.73,4.36-9.2,7.21-12.13,30.92-32.1,62.43-79.21,102-102.95,12.16-7.34,25-12.52,37.39-21.2,16-11.54,37.63-36,31.15-58.55-2.88-10-8.93-21.21,2.67-30.43,7.55-6,24.27-4.18,30.35-10.94,8.67-4.24,15.46-12.78,20.87-21.41,15.24-24.26,31.4-46.82,50.16-67,12.82-14,35.11-27.74,38.13-46.37,3.27-20.55-1.36-42-12.68-60.25-5.92-9.54-20.62-17-7.48-22.91,17-7.79,56.44.29,75.35,6,16.52,4.81,33.44,11.61,50.27,11.89,10.52.18,20.18-2.18,29.72-4.21a442.28,442.28,0,0,1,129.59-8,470.26,470.26,0,0,1,66.66,10.52c10.67,2.25,38.55,8.79,29.07,19.78-6.15,7.12-14.14,13-21.55,19.83,6.29,3.86,7,5.25,4.2,7.65-11.69,10-24.24,20-37.6,30.27-5.88,4.51-11.16,9.73-19.27,12.6-8.28,2.94-14.73,7.63-19.25,14.13a52.85,52.85,0,0,1-8.34,9.82,2.69,2.69,0,0,0-.82,3q3.78,15.38,6.09,30.51c3.43,22.64,4,44.41-1,65-.54,2.22-.8,5.1-4.65,4.72-4-.39-5.48-3.58-6.9-6-6.93-12-13.56-24-20.49-36A124.21,124.21,0,0,0,1165.54,398c-4.28-4.85-9.08-9.32-15.57-12.23-1.85-.83-3.18-1-4.71-.22a463.69,463.69,0,0,1-44,19c-19.26,7.31-39.25,14-59.49,20.89-15.74,5.34-31.61,10.68-47.45,16.21-18.34,6.51-26.59,8.88-33.25,27.66-3.56,10.12-8.69,19.2-14.74,28.41a4.44,4.44,0,0,1-2.36,2.15,3.76,3.76,0,0,1-2.23-.41C926,493,916.11,490.12,899,491.82,891.84,493.61,886.67,496.78,882.75,501.05Z"/></svg>