<svg id="Layer_1" data-name="Layer 1" xmlns="http://www.w3.org/2000/svg" viewBox="0 0 759.14 296.44"><defs><style>.cls-1{fill:none;stroke:#000;stroke-miterlimit:10;}.cls-2{fill:#5553ce;}</style></defs><path class="cls-1" d="M759.09,64" transform="translate(0.02 -0.01)"/><path class="cls-2" d="M729.52,32.3A101.49,101.49,0,0,0,673.85,3.21C622.63-5.79,548,1.21,535,63.78c-3,14.45,2,33.38,17.06,36.13C568,68,615.2,76.6,627,106.91c7.7,19.7.33,42.13-12.83,58.06-17.25,20.92-45,28.63-71.19,33.41-53.4,9.77-107.76,12.82-162,10.22C327.26,206,271.6,190.06,217.91,198.16,136.75,210.42,83.51,296.06,0,296.45H759.09c0-38.18-.06-73.94,0-112.12,0-36.41.8-78.38-6.6-112.73C749.15,56,739.93,43.08,729.52,32.3Z" transform="translate(0.02 -0.01)"/></svg>