<svg id="Layer_1" data-name="Layer 1" xmlns="http://www.w3.org/2000/svg" xmlns:xlink="http://www.w3.org/1999/xlink" viewBox="0 0 2160 1083.84"><defs><style>.cls-1{fill:url(#linear-gradient);}.cls-2{fill:url(#linear-gradient-2);}</style><linearGradient id="linear-gradient" x1="213.01" y1="1374.17" x2="1941.01" y2="225.84" gradientUnits="userSpaceOnUse"><stop offset="0" stop-color="#3fb6ff"/><stop offset="1" stop-color="#5553ce"/></linearGradient><linearGradient id="linear-gradient-2" x1="93.62" y1="1194.52" x2="1821.62" y2="46.19" xlink:href="#linear-gradient"/></defs><path class="cls-1" d="M2160,0V1080H1244.21c18-75.07,123.85-101.4,185.92-124.4,84.18-31.19,182-58.54,241.5-132.47,73.48-91.27,6.29-202.07-74.19-262.46C1482.6,474.5,1336.76,490,1204.18,514.93,1053.87,543.17,904.6,591.55,750.24,562,623.36,537.72,522.85,457.27,533.41,318.34,545.3,161.83,672.37,96,776.54,0Z"/><path class="cls-2" d="M746.91,1083.84H0V933.28C194.67,848.12,407.77,805.2,620.24,808.91c38.11.67,79.81,4.3,107.2,30.81,14.44,14,23.12,32.88,29.19,52C776.48,954.39,770.44,1022.05,746.91,1083.84Z"/></svg>