<svg id="Layer_1" data-name="Layer 1" xmlns="http://www.w3.org/2000/svg" viewBox="0 0 1080 110.94"><defs><style>.cls-1{fill:#f4f4f4;}</style></defs><path class="cls-1" d="M925.71,991.5a143,143,0,0,1-77.14-22.44,143.81,143.81,0,0,1-154.28,0,143.83,143.83,0,0,1-154.29,0,143.83,143.83,0,0,1-154.29,0,143.81,143.81,0,0,1-154.28,0,143.83,143.83,0,0,1-154.29,0,143.27,143.27,0,0,1-22.89,11.85,86.51,86.51,0,0,0-54.25,80V1080H1080v-19.13a86.51,86.51,0,0,0-54.25-80,143.27,143.27,0,0,1-22.89-11.85A143,143,0,0,1,925.71,991.5Z" transform="translate(0 -969.06)"/></svg>