<svg id="Layer_1" data-name="Layer 1" xmlns="http://www.w3.org/2000/svg" viewBox="0 0 548.19 293.48"><defs><style>.cls-1{fill:#f4f4f4;}</style></defs><path class="cls-1" d="M808.35,597.31c-16-32.92-48.17-57.47-84.14-64.21-39.26-7.35-82.12,6.53-108.07,37l-.24-.35c-30.69-40.94-90.87-53.63-138.65-42.22-23.8,5.68-48.58,17.92-66.82,34.38-3.24,2.93-6.42,6.41-7,10.74l.37,0c3.87.35,7.22-2.58,10.22-4.58,25.76-17.1,58.07-24.24,88.66-24.73,32.61-.53,68.74,5.46,97.6,21.28,1.88,1,12.64,8.55,15.54,8.18l.16.31c17.43-8.59,34.62-16.57,53.92-20a146.61,146.61,0,0,1,101.65,19.17c8.11,5,16.09,10.61,22.72,17.43,1.48,1.51,11.32,13.22,13.55,11.91C809.4,600.68,809.07,598.78,808.35,597.31Z" transform="translate(-388.91 -308.25)"/><path class="cls-1" d="M936.93,498.92A82.6,82.6,0,0,0,887.49,445c-25.8-9.76-56.64-5.52-78,12,0-.09-.07-.18-.11-.27-15.91-31.56-55.29-47.5-89.17-45.53-16.88,1-35.22,6.29-49.62,15.27-2.56,1.6-5.15,3.58-6.08,6.45l.25.07c2.59.71,5.22-.88,7.51-1.87,19.58-8.5,42.43-9.44,63.29-6.06,22.24,3.59,46.09,12.06,63.8,26.32,1.15.92,7.56,7.34,9.57,7.45l.08.22c12.89-3.72,25.55-7.07,39.09-7.05a101.3,101.3,0,0,1,66.81,25.37A80.06,80.06,0,0,1,928.26,492c.82,1.21,6.09,10.37,7.77,9.75C937.23,501.34,937.23,500,936.93,498.92Z" transform="translate(-388.91 -308.25)"/><path class="cls-1" d="M609.4,360.35A65.53,65.53,0,0,0,565.88,322c-21.18-5.55-45.16.38-60.54,16a1.28,1.28,0,0,0-.11-.2C490,314.2,457.62,304.92,431,309.3c-13.23,2.19-27.26,7.92-37.87,16.21-1.89,1.47-3.77,3.25-4.26,5.6l.2,0c2.1.34,4.05-1.13,5.77-2.11,14.75-8.35,32.69-11,49.44-10.08,17.86,1,37.39,5.66,52.55,15.43,1,.63,6.58,5.16,8.18,5.08l.08.17c9.86-4,19.58-7.72,30.26-8.84a80.43,80.43,0,0,1,54.85,14.44A63.65,63.65,0,0,1,602,355.65c.75.89,5.67,7.67,6.94,7C609.84,362.23,609.74,361.18,609.4,360.35Z" transform="translate(-388.91 -308.25)"/></svg>