<svg id="Layer_1" data-name="Layer 1" xmlns="http://www.w3.org/2000/svg" viewBox="0 0 287.2 223.37"><defs><style>.cls-1{fill:#5553ce;}.cls-2,.cls-3{fill:#f4f4f4;}.cls-3{stroke:#5553ce;stroke-miterlimit:10;stroke-width:3px;}</style></defs><rect class="cls-1" width="287.2" height="221.87"/><path class="cls-2" d="M611.36,491.39c-5.54-6.66-15.6-6.81-24.19-5.69-8.37,1.1-1.1,10.47-2,15.76-.6,3.6-2.94,6.62-4.94,9.68-4.39,6.73-5.24,13.08-6.6,20.74a42.87,42.87,0,0,1-11.76,22.56c-2.46-12.82,7.12-25.79,4.28-38.52-1.58-7.06-6.79-12.91-8.2-20-1.17-5.85.39-11.92,2.72-17.42,2.11-5,13.56-19.62,5.86-24-3.52-2-9-2.16-14.1-1.73a7.17,7.17,0,0,0-6.39,8.82,46.88,46.88,0,0,1,1.1,15c-.42,4.75-2,17.16-7,19.58-1.35.64-3-.24-3.8-1.54a8.92,8.92,0,0,1-.83-4.38c-.06-6.47.25-13-1.16-19.31-2.55-11.44-9.3-14.24-18.84-18.75-3-1.42-5.73-4.07-5.56-7.6.18-3.86,3.33-7.48,1.77-11.44-1-2.46-3.6-3.41-6-3.8a30.27,30.27,0,0,0-16.64,2.57c-5.52,2.68-3.29,10.54-2.23,15.19a27.12,27.12,0,0,0,10.1,15.6c3.16,2.36,6.82,4,10.07,6.24s6.21,5.35,6.94,9.23c.91,4.82-1.77,9.62-1.74,14.52,0,6.53,4.6,11.79,7.3,17.4a49.06,49.06,0,0,1,4.43,20.49c.05,5.93.08,18.15-8,18.93-11.4,1.11-8.64-17-11.72-23.06-1.76-3.46-5.14-5.78-7.42-8.92-4.61-6.34-2.2-12-1.57-18.85.27-3-.46-6.38-3-8.07-4.7-3.18-14.41.93-18.82,3.27-5.33,2.83-10.34,7.53-9.95,14.06.38,6.26,5.85,9.69,9.38,14.19s5.65,10.35,6.91,16.07c3.29,15,3.69,29,15.84,40,5.39,4.89,11.24,10,13.08,17.37,1.61,6.45-.33,13.2-2.3,19.54l46.14-3.74c-1.24-5.58-2.78-14.81,1.29-19.54,6.11-7.11,18.2-6.73,23-15.07,2.78-4.84,2-11,4-16.13,3.94-10.27,11.11-17.85,12.19-29.19.64-6.77.3-14.51,3.81-20.59,3.18-5.51,9-6.59,13.51-10.57C612.94,498,614.35,495,611.36,491.39ZM499.52,440c-4.75.7-8.83-.23-9.1-2.09s3.36-3.92,8.11-4.62,8.82.23,9.1,2.09S504.27,439.33,499.52,440ZM481.1,504.91c-5.4,2.81-10.66,3.39-11.75,1.29s2.38-6.09,7.77-8.9,10.66-3.4,11.75-1.3S486.49,502.09,481.1,504.91Zm69.7-45.14c0-1.47,3.06-2.66,6.83-2.66s6.84,1.19,6.84,2.66-3.06,2.67-6.84,2.67S550.8,461.25,550.8,459.77Zm55.92,36c-.44,2-4.9,2.67-10,1.55s-8.82-3.63-8.39-5.6,4.9-2.67,10-1.55S607.16,493.75,606.72,495.72Z" transform="translate(-396.4 -429.06)"/><path class="cls-3" d="M472.49,618.22l3.32-10.79a14.64,14.64,0,0,1,8.63-9.32l5.21-2.06a14.64,14.64,0,0,1,8.46-.69l23.78,5.12A14.65,14.65,0,0,1,533,611.1l.84,3.2a14.67,14.67,0,0,1-3.41,13.64l-12.67,13.72a14.64,14.64,0,0,1-15.36,4l-13.26-4.38a14.8,14.8,0,0,1-3.53-1.72l-7.22-4.81A14.67,14.67,0,0,1,472.49,618.22Z" transform="translate(-396.4 -429.06)"/><path class="cls-3" d="M539.5,611.65l13.31-13.95a7.09,7.09,0,0,1,5.15-2.2h10.59a7.13,7.13,0,0,1,4.92,2l7.86,7.53a7.11,7.11,0,0,1,1.68,2.51l1.85,4.65a7.1,7.1,0,0,0,6.61,4.49h9a7.13,7.13,0,0,1,3.57,1l9,5.2a7.14,7.14,0,0,1,3.34,4.47h0a7.11,7.11,0,0,1-5.69,8.68l-22.86,4a7.09,7.09,0,0,1-1.22.1H557.69a7.1,7.1,0,0,1-6.51-4.26l-1.5-3.43a7.15,7.15,0,0,0-1.48-2.17l-8.59-8.64A7.11,7.11,0,0,1,539.5,611.65Z" transform="translate(-396.4 -429.06)"/><path class="cls-3" d="M522,616.23l22.52-7.89a10.2,10.2,0,0,1,10.55,2.39l6.93,6.89A10.18,10.18,0,0,1,564.55,628L561.32,638a11.09,11.09,0,0,1-.66,1.59l-3,5.83a10.2,10.2,0,0,1-12,5l-5.45-1.64a10.38,10.38,0,0,0-3.28-.43l-11.49.39-8.86.31a10.19,10.19,0,0,1-9.54-5.78h0a10.18,10.18,0,0,1,.14-9.11l2.84-5.46a10.1,10.1,0,0,1,1.21-1.82l6.34-7.62A10.22,10.22,0,0,1,522,616.23Z" transform="translate(-396.4 -429.06)"/><path class="cls-3" d="M480.84,635.48l2.42-1.66a5,5,0,0,1,5.67,0l4.14,2.91a5,5,0,0,1,1.89,2.58h0a5,5,0,0,1-3.54,6.32L485.91,647a5,5,0,0,1-5.82-3L479,641.45A5,5,0,0,1,480.84,635.48Z" transform="translate(-396.4 -429.06)"/><path class="cls-3" d="M557.61,633.38l7.2-3.5a5.29,5.29,0,0,1,5.1.27h0a5.27,5.27,0,0,1,2.36,5.52L571.18,641a5.3,5.3,0,0,1-2.73,3.62l-4.34,2.26a5.27,5.27,0,0,1-7.26-2.58l-1.78-4.09A5.27,5.27,0,0,1,557.61,633.38Z" transform="translate(-396.4 -429.06)"/></svg>